<svg width="22" height="22" viewBox="0 0 22 22" fill="none" xmlns="http://www.w3.org/2000/svg">
<path d="M14.4968 5.46409L13.3787 4.56965C12.9128 4.19692 12.5572 3.70439 12.35 3.14488L12.0379 2.30243C11.748 1.51962 11.0014 1 10.1667 1C9.33189 1 8.58533 1.51962 8.2954 2.30243L7.95722 3.21551C7.76637 3.73079 7.45328 4.19205 7.04485 4.55964L6.08337 5.42496C4.26217 7.06405 3.22222 9.3991 3.22222 11.8493V16.2015C3.22222 18.0042 2.56066 19.7443 1.36299 21.0916C1.22234 21.2499 1.33466 21.5 1.54637 21.5H7.66667H14.8889H20.3056C20.528 21.5 20.6224 21.2168 20.4444 21.0833C18.6958 19.7718 17.6667 17.7136 17.6667 15.5278V12.0594C17.6667 9.49363 16.5003 7.06694 14.4968 5.46409Z" stroke="#53565A"/>
</svg>
