<svg width="28" height="23" viewBox="0 0 28 23" fill="none" xmlns="http://www.w3.org/2000/svg">
<path d="M4 19H5.2H24C24.5523 19 25 19.4477 25 20C25 21.1046 24.1046 22 23 22H5C3.89543 22 3 21.1046 3 20C3 19.4477 3.44772 19 4 19Z" stroke="#53565A"/>
<path d="M23.1815 17H4.81851C3.89588 17 3.09298 16.3689 2.87509 15.4723L0.601027 6.11577C0.386431 5.23282 1.36546 4.54443 2.12373 5.04509L6.37025 7.84893C7.27654 8.44733 8.49476 8.21312 9.11456 7.32133L13.3155 1.2769C13.7308 0.679264 14.6251 0.711352 14.9966 1.33721L18.4582 7.16968C19.0301 8.13327 20.282 8.43905 21.2337 7.84762L25.9229 4.93361C26.6833 4.46107 27.6339 5.14918 27.4225 6.01913L25.1249 15.4723C24.907 16.3689 24.1041 17 23.1815 17Z" stroke="#53565A"/>
</svg>
