<svg width="32" height="28" viewBox="0 0 32 28" fill="none" xmlns="http://www.w3.org/2000/svg">
<mask id="path-1-inside-1_34:307" fill="white">
<path d="M16 25.724C16 26.9814 15.1456 28 14.0907 28H1.9113C0.855926 28 0 26.9814 0 25.724V5.22137C0 3.96396 0.855926 2.94742 1.9113 2.94742H14.0907C15.1456 2.94742 16 3.96466 16 5.22137V25.724Z"/>
</mask>
<path d="M15 25.724C15 26.6009 14.4359 27 14.0907 27V29C15.8553 29 17 27.3618 17 25.724H15ZM14.0907 27H1.9113V29H14.0907V27ZM1.9113 27C1.56457 27 1 26.5996 1 25.724H-1C-1 27.3631 0.147284 29 1.9113 29V27ZM1 25.724V5.22137H-1V25.724H1ZM1 5.22137C1 4.34697 1.56349 3.94742 1.9113 3.94742V1.94742C0.14836 1.94742 -1 3.58095 -1 5.22137H1ZM1.9113 3.94742H14.0907V1.94742H1.9113V3.94742ZM14.0907 3.94742C14.4368 3.94742 15 4.34618 15 5.22137H17C17 3.58313 15.8544 1.94742 14.0907 1.94742V3.94742ZM15 5.22137V25.724H17V5.22137H15Z" fill="#53565A" mask="url(#path-1-inside-1_34:307)"/>
<mask id="path-3-inside-2_34:307" fill="white">
<path d="M16 25.724C16 26.9814 16.8555 28 17.9104 28H30.0911C31.144 28 32 26.9814 32 25.724V5.22137C32 3.96396 31.144 2.94742 30.0911 2.94742H17.9114C16.8565 2.94742 16.0005 3.96466 16.0005 5.22137V25.724"/>
</mask>
<path d="M15 25.724C15 27.3626 16.1464 29 17.9104 29V27C17.5645 27 17 26.6002 17 25.724H15ZM17.9104 29H30.0911V27H17.9104V29ZM30.0911 29C31.8534 29 33 27.3622 33 25.724H31C31 26.6005 30.4347 27 30.0911 27V29ZM33 25.724V5.22137H31V25.724H33ZM33 5.22137C33 3.58183 31.8524 1.94742 30.0911 1.94742V3.94742C30.4357 3.94742 31 4.34609 31 5.22137H33ZM30.0911 1.94742H17.9114V3.94742H30.0911V1.94742ZM17.9114 1.94742C16.1486 1.94742 15.0005 3.58201 15.0005 5.22137H17.0005C17.0005 4.34731 17.5643 3.94742 17.9114 3.94742V1.94742ZM15.0005 5.22137V25.724H17.0005V5.22137H15.0005Z" fill="#53565A" mask="url(#path-3-inside-2_34:307)"/>
<mask id="path-5-inside-3_34:307" fill="white">
<path d="M16.2253 22.6247C16.2253 23.8751 15.4779 24.8855 14.5548 24.8855H3.91336C2.9921 24.8855 2.24561 23.8751 2.24561 22.6247V2.25942C2.24561 1.01181 2.9921 0 3.91336 0H14.5553C15.4784 0 16.2258 1.01181 16.2258 2.25942V22.6247"/>
</mask>
<path d="M16.2253 22.6247C16.2253 23.8751 15.4779 24.8855 14.5548 24.8855H3.91336C2.9921 24.8855 2.24561 23.8751 2.24561 22.6247V2.25942C2.24561 1.01181 2.9921 0 3.91336 0H14.5553C15.4784 0 16.2258 1.01181 16.2258 2.25942V22.6247" fill="white"/>
<path d="M15.2253 22.6247C15.2253 23.0583 15.0944 23.4099 14.9321 23.6296C14.7697 23.8493 14.6253 23.8855 14.5548 23.8855V25.8855C15.4074 25.8855 16.0983 25.4165 16.5404 24.8184C16.9825 24.2203 17.2253 23.4415 17.2253 22.6247H15.2253ZM14.5548 23.8855H3.91336V25.8855H14.5548V23.8855ZM3.91336 23.8855C3.84459 23.8855 3.7009 23.8501 3.53861 23.6302C3.37644 23.4104 3.24561 23.0586 3.24561 22.6247H1.24561C1.24561 23.4412 1.48802 24.2197 1.92941 24.8178C2.37068 25.4157 3.06086 25.8855 3.91336 25.8855V23.8855ZM3.24561 22.6247V2.25942H1.24561V22.6247H3.24561ZM3.24561 2.25942C3.24561 1.82735 3.37622 1.47571 3.53861 1.25567C3.70122 1.03534 3.84502 1 3.91336 1V-1C3.06043 -1 2.37036 -0.529435 1.92941 0.0680436C1.48824 0.665815 1.24561 1.44388 1.24561 2.25942H3.24561ZM3.91336 1H14.5553V-1H3.91336V1ZM14.5553 1C14.6253 1 14.7698 1.03614 14.9325 1.25626C15.0951 1.47622 15.2258 1.82763 15.2258 2.25942H17.2258C17.2258 1.4436 16.9828 0.665299 16.5409 0.0674517C16.0991 -0.530235 15.4083 -1 14.5553 -1V1ZM15.2258 2.25942V22.6247H17.2258V2.25942H15.2258Z" fill="#53565A" mask="url(#path-5-inside-3_34:307)"/>
<path d="M5.31732 5.75676H13.1437C13.6697 5.75676 13.6697 4.42102 13.1437 4.42102H5.31732C4.79169 4.42102 4.79169 5.75676 5.31732 5.75676Z" fill="#53565A"/>
<path d="M5.31732 8.46618H13.1437C13.6697 8.46618 13.6697 7.1319 13.1437 7.1319H5.31732C4.79169 7.1319 4.79169 8.46618 5.31732 8.46618Z" fill="#53565A"/>
<path d="M5.31732 11.2381H13.1437C13.6697 11.2381 13.6697 9.90247 13.1437 9.90247H5.31732C4.79169 9.90247 4.79169 11.2381 5.31732 11.2381Z" fill="#53565A"/>
<path d="M5.31732 13.9497H13.1437C13.6697 13.9497 13.6697 12.614 13.1437 12.614H5.31732C4.79169 12.614 4.79169 13.9497 5.31732 13.9497Z" fill="#53565A"/>
<mask id="path-11-inside-4_34:307" fill="white">
<path d="M30.2027 23.0519C30.2027 24.2995 29.4557 25.3113 28.533 25.3113H17.8916C16.9717 25.3113 16.2234 24.2995 16.2234 23.0519V2.68385C16.2234 1.43694 16.9717 0.426514 17.8916 0.426514H28.533C29.4552 0.426514 30.2027 1.43694 30.2027 2.68385V23.0519Z"/>
</mask>
<path d="M30.2027 23.0519C30.2027 24.2995 29.4557 25.3113 28.533 25.3113H17.8916C16.9717 25.3113 16.2234 24.2995 16.2234 23.0519V2.68385C16.2234 1.43694 16.9717 0.426514 17.8916 0.426514H28.533C29.4552 0.426514 30.2027 1.43694 30.2027 2.68385V23.0519Z" fill="white"/>
<path d="M29.2027 23.0519C29.2027 23.4838 29.072 23.8353 28.9095 24.0552C28.7469 24.2754 28.6026 24.3113 28.533 24.3113V26.3113C29.3861 26.3113 30.0767 25.8413 30.5182 25.2436C30.9598 24.6458 31.2027 23.8675 31.2027 23.0519H29.2027ZM28.533 24.3113H17.8916V26.3113H28.533V24.3113ZM17.8916 24.3113C17.8242 24.3113 17.6801 24.2761 17.5169 24.0552C17.3541 23.835 17.2234 23.4834 17.2234 23.0519H15.2234C15.2234 23.868 15.4668 24.6461 15.9082 25.2436C16.3492 25.8405 17.0392 26.3113 17.8916 26.3113V24.3113ZM17.2234 23.0519V2.68385H15.2234V23.0519H17.2234ZM17.2234 2.68385C17.2234 2.25285 17.3541 1.90194 17.5166 1.68218C17.6795 1.46189 17.8236 1.42651 17.8916 1.42651V-0.573486C17.0397 -0.573486 16.3498 -0.103652 15.9085 0.492998C15.4669 1.09018 15.2234 1.86794 15.2234 2.68385H17.2234ZM17.8916 1.42651H28.533V-0.573486H17.8916V1.42651ZM28.533 1.42651C28.6029 1.42651 28.7472 1.46255 28.9097 1.68226C29.0721 1.90177 29.2027 2.25256 29.2027 2.68385H31.2027C31.2027 1.86822 30.9595 1.09035 30.5176 0.492923C30.0759 -0.104313 29.3854 -0.573486 28.533 -0.573486V1.42651ZM29.2027 2.68385V23.0519H31.2027V2.68385H29.2027Z" fill="#53565A" mask="url(#path-11-inside-4_34:307)"/>
<path d="M18.884 5.75676H27.2669C27.8303 5.75676 27.8303 4.42102 27.2669 4.42102H18.884C18.3206 4.42102 18.3206 5.75676 18.884 5.75676Z" fill="#53565A"/>
<path d="M18.884 8.46905H27.2669C27.8303 8.46905 27.8303 7.13474 27.2669 7.13474H18.884C18.3206 7.13474 18.3206 8.46905 18.884 8.46905Z" fill="#53565A"/>
<path d="M18.884 11.2402H27.2669C27.8303 11.2402 27.8303 9.90454 27.2669 9.90454H18.884C18.3206 9.90454 18.3206 11.2402 18.884 11.2402Z" fill="#53565A"/>
<path d="M19.2816 14.4553H24.7936C25.164 14.4553 25.164 13.1189 24.7936 13.1189H19.2816C18.9117 13.1189 18.9117 14.4553 19.2816 14.4553Z" fill="#53565A"/>
</svg>
