<svg width="29" height="21" viewBox="0 0 29 21" fill="none" xmlns="http://www.w3.org/2000/svg">
<path d="M5.34803 19.0085L4.77342 19.7412C4.52756 20.0548 4.15124 20.2379 3.75281 20.2379C3.0365 20.2379 2.45581 19.6572 2.45581 18.9409V12.5318C2.45581 11.1386 2.83351 9.77145 3.54873 8.57583L5.00781 6.13671C6.81348 3.11821 10.0722 1.27031 13.5895 1.27031H16.0726C19.4114 1.27031 22.53 2.93668 24.3857 5.71232L25.8349 7.87983C26.9347 9.5248 27.5217 11.4591 27.5217 13.4378V18.4415C27.5217 18.6994 27.4662 18.9543 27.3589 19.1888C27.0665 19.828 26.4282 20.2379 25.7253 20.2379H24.2521C23.5731 20.2379 23.0227 19.6875 23.0227 19.0085C23.0227 18.3295 22.4723 17.7791 21.7933 17.7791H7.87441C6.88816 17.7791 5.95663 18.2324 5.34803 19.0085Z" fill="#1B365D" stroke="#1B365D"/>
<path d="M25.4 6.33284L25.3413 6.58943C25.2982 6.77787 25.3503 6.97546 25.4808 7.11808L25.6861 7.34248C25.8092 7.477 26.0212 7.477 26.1442 7.34248C26.203 7.2782 26.2862 7.24159 26.3733 7.24159H27.4285C27.6928 7.24159 27.9449 7.13053 28.1233 6.93553L28.1624 6.89281C28.363 6.67358 28.4329 6.36472 28.3462 6.0805C28.2384 5.72691 27.9121 5.48533 27.5424 5.48533H26.4632C25.9545 5.48533 25.5134 5.83696 25.4 6.33284Z" fill="#1B365D" stroke="#1B365D"/>
<path d="M4.25628 6.33284L4.31496 6.58943C4.35806 6.77787 4.30591 6.97546 4.17543 7.11808L3.97013 7.34248C3.84705 7.477 3.6351 7.477 3.51202 7.34248C3.45321 7.2782 3.37009 7.24159 3.28297 7.24159H2.22775C1.96345 7.24159 1.71132 7.13053 1.53292 6.93553L1.49384 6.89281C1.29326 6.67358 1.22339 6.36472 1.31006 6.0805C1.41789 5.72691 1.74414 5.48533 2.1138 5.48533H3.19303C3.70172 5.48533 4.14286 5.83696 4.25628 6.33284Z" fill="#1B365D" stroke="#1B365D"/>
<path d="M4.88696 10.45L5.02609 10.7541L4.88696 11.0582C4.77593 11.3009 4.53355 11.4566 4.26665 11.4566C4.15363 11.4566 4.06201 11.365 4.06201 11.252V10.2562C4.06201 10.1432 4.15363 10.0516 4.26665 10.0516C4.53355 10.0516 4.77593 10.2073 4.88696 10.45Z" fill="white"/>
<path d="M5.02609 10.7541L4.88696 10.45C4.77593 10.2073 4.53355 10.0516 4.26665 10.0516V10.0516C4.15363 10.0516 4.06201 10.1432 4.06201 10.2562V11.252C4.06201 11.365 4.15363 11.4566 4.26665 11.4566V11.4566C4.53355 11.4566 4.77593 11.3009 4.88696 11.0582L5.02609 10.7541ZM5.02609 10.7541H7.59695" stroke="white"/>
<path d="M24.4472 11.0582L24.3081 10.7541L24.4472 10.45C24.5582 10.2073 24.8006 10.0516 25.0675 10.0516C25.1806 10.0516 25.2722 10.1432 25.2722 10.2562V11.252C25.2722 11.365 25.1806 11.4566 25.0675 11.4566C24.8006 11.4566 24.5582 11.3009 24.4472 11.0582Z" fill="white"/>
<path d="M22.0586 10.7541H24.3081M24.3081 10.7541L24.4472 11.0582C24.5582 11.3009 24.8006 11.4566 25.0675 11.4566V11.4566C25.1806 11.4566 25.2722 11.365 25.2722 11.252V10.2562C25.2722 10.1432 25.1806 10.0516 25.0675 10.0516V10.0516C24.8006 10.0516 24.5582 10.2073 24.4472 10.45L24.3081 10.7541Z" stroke="white"/>
<path d="M17.6746 13.5641H11.659C10.3825 13.5641 9.24688 12.7532 8.83261 11.5457C8.69952 11.1578 8.98778 10.7541 9.3979 10.7541H19.9358C20.3459 10.7541 20.6341 11.1578 20.5011 11.5457C20.0868 12.7532 18.9512 13.5641 17.6746 13.5641Z" stroke="white"/>
<path d="M13.0605 13.5641V12.8616H14.0246H14.346M14.346 12.8616V12.1591H14.9887H15.6314M14.346 12.8616H14.6673H15.6314M15.6314 12.1591V11.4566H16.2741M15.6314 12.1591H16.2741M16.2741 11.4566V10.7541H16.9168V11.4566H16.2741Z" stroke="white"/>
</svg>
