<svg width="29" height="21" viewBox="0 0 29 21" fill="none" xmlns="http://www.w3.org/2000/svg">
<path d="M5.17786 18.7382L4.60326 19.4709C4.3574 19.7845 3.98108 19.9676 3.58265 19.9676C2.86633 19.9676 2.28564 19.3869 2.28564 18.6706V12.2615C2.28564 10.8683 2.66335 9.50114 3.37857 8.30552L4.83764 5.86641C6.64331 2.84791 9.90203 1 13.4194 1H15.9024C19.2413 1 22.3598 2.66637 24.2156 5.44202L25.6647 7.60952C26.7645 9.25449 27.3516 11.1888 27.3516 13.1675V18.1712C27.3516 18.4291 27.296 18.684 27.1887 18.9185C26.8964 19.5577 26.2581 19.9676 25.5552 19.9676H24.0819C23.403 19.9676 22.8525 19.4172 22.8525 18.7382C22.8525 18.0592 22.3021 17.5088 21.6232 17.5088H7.70425C6.71799 17.5088 5.78646 17.9621 5.17786 18.7382Z" stroke="#53565A"/>
<path d="M25.2298 6.06254L25.1711 6.31912C25.128 6.50756 25.1802 6.70515 25.3107 6.84777L25.516 7.07217C25.639 7.2067 25.851 7.2067 25.9741 7.07217C26.0329 7.00789 26.116 6.97128 26.2031 6.97128H27.2583C27.5226 6.97128 27.7748 6.86022 27.9532 6.66522L27.9922 6.62251C28.1928 6.40328 28.2627 6.09441 28.176 5.81019C28.0682 5.45661 27.7419 5.21502 27.3723 5.21502H26.2931C25.7844 5.21502 25.3432 5.56666 25.2298 6.06254Z" fill="#53565A" stroke="#53565A"/>
<path d="M4.08611 6.06254L4.1448 6.31912C4.1879 6.50756 4.13575 6.70515 4.00526 6.84777L3.79996 7.07217C3.67689 7.2067 3.46493 7.2067 3.34186 7.07217C3.28304 7.00789 3.19993 6.97128 3.1128 6.97128H2.05758C1.79329 6.97128 1.54115 6.86022 1.36275 6.66522L1.32367 6.62251C1.1231 6.40328 1.05322 6.09441 1.1399 5.81019C1.24773 5.45661 1.57397 5.21502 1.94363 5.21502H3.02286C3.53155 5.21502 3.97269 5.56666 4.08611 6.06254Z" fill="#53565A" stroke="#53565A"/>
<path d="M4.7168 10.1797L4.85592 10.4838L4.7168 10.7879C4.60577 11.0306 4.36339 11.1863 4.09649 11.1863C3.98347 11.1863 3.89185 11.0947 3.89185 10.9817V9.98593C3.89185 9.87291 3.98347 9.78129 4.09649 9.78129C4.36339 9.78129 4.60577 9.93695 4.7168 10.1797Z" fill="#53565A"/>
<path d="M4.85592 10.4838L4.7168 10.1797C4.60577 9.93695 4.36339 9.78129 4.09649 9.78129V9.78129C3.98347 9.78129 3.89185 9.87291 3.89185 9.98593V10.9817C3.89185 11.0947 3.98347 11.1863 4.09649 11.1863V11.1863C4.36339 11.1863 4.60577 11.0306 4.7168 10.7879L4.85592 10.4838ZM4.85592 10.4838H7.42678" stroke="#53565A"/>
<path d="M24.2771 10.7879L24.1379 10.4838L24.2771 10.1797C24.3881 9.93695 24.6305 9.78129 24.8974 9.78129C25.0104 9.78129 25.102 9.87291 25.102 9.98593V10.9817C25.102 11.0947 25.0104 11.1863 24.8974 11.1863C24.6305 11.1863 24.3881 11.0306 24.2771 10.7879Z" fill="#53565A"/>
<path d="M21.8884 10.4838H24.1379M24.1379 10.4838L24.2771 10.7879C24.3881 11.0306 24.6305 11.1863 24.8974 11.1863V11.1863C25.0104 11.1863 25.102 11.0947 25.102 10.9817V9.98593C25.102 9.87291 25.0104 9.78129 24.8974 9.78129V9.78129C24.6305 9.78129 24.3881 9.93695 24.2771 10.1797L24.1379 10.4838Z" stroke="#53565A"/>
<path d="M17.5045 13.2938H11.4889C10.2123 13.2938 9.07671 12.4828 8.66245 11.2754C8.52935 10.8874 8.81761 10.4838 9.22773 10.4838H19.7656C20.1757 10.4838 20.464 10.8874 20.3309 11.2754C19.9166 12.4828 18.781 13.2938 17.5045 13.2938Z" stroke="#53565A"/>
<path d="M12.8904 13.2938V12.5913H13.8545H14.1758M14.1758 12.5913V11.8888H14.8185H15.4612M14.1758 12.5913H14.4972H15.4612M15.4612 11.8888V11.1863H16.104M15.4612 11.8888H16.104M16.104 11.1863V10.4838H16.7467V11.1863H16.104Z" stroke="#53565A"/>
</svg>
