<svg width="34" height="34" viewBox="0 0 34 34" fill="none" xmlns="http://www.w3.org/2000/svg">
<path d="M28.3209 13.8H23.8418C23.0087 13.8 22.3333 14.4754 22.3333 15.3085C22.3333 15.7086 22.4923 16.0923 22.7752 16.3752L23.0444 16.6444C23.4998 17.0998 24.1173 17.3556 24.7612 17.3556H25.8096C26.7887 17.3556 27.7458 17.6453 28.5604 18.1884L28.8528 18.3833C30.5552 19.5183 31.5778 21.429 31.5778 23.4751V24.1476C31.5778 25.2927 31.3112 26.4221 30.7991 27.4463L30.3365 28.3714C29.7575 29.5295 28.8184 30.4686 27.6603 31.0476L27.178 31.2888C25.9094 31.9231 24.4259 31.9667 23.1223 31.408C21.3495 30.6482 20.2 28.905 20.2 26.9762V23.4C20.2 22.4182 19.4041 21.6222 18.4222 21.6222C17.4404 21.6222 16.6444 22.4182 16.6444 23.4V25.8889V26.8122C16.6444 28.0558 16.2212 29.2624 15.4443 30.2335C14.405 31.5326 12.8315 32.2889 11.1678 32.2889H10.3119C9.32902 32.2889 8.3564 32.0893 7.45302 31.7021L6.36832 31.2372C4.74592 30.5419 3.44611 29.2593 2.72923 27.6463L2.03304 26.0799C1.39844 24.652 1.61285 22.9895 2.58895 21.7694C3.3825 20.7774 4.58392 20.2 5.85422 20.2H10.9556C11.741 20.2 12.3778 19.5632 12.3778 18.7778C12.3778 17.9923 11.741 17.3556 10.9556 17.3556H8.20107C7.22398 17.3556 6.27782 17.013 5.5272 16.3875L3.94502 15.069C2.95284 14.2422 2.23247 13.1359 1.87766 11.894C1.32476 9.95888 1.70929 7.87651 2.91684 6.26644L4.34688 4.35971C4.94949 3.55623 5.75255 2.9251 6.67569 2.52946L7.37701 2.2289C9.10884 1.48669 11.1181 1.87363 12.4504 3.20594C13.3145 4.07009 13.8 5.24211 13.8 6.46419V10.2444C13.8 11.0299 14.4368 11.6667 15.2222 11.6667C16.0077 11.6667 16.6444 11.0299 16.6444 10.2444V8.71663C16.6444 8.31712 16.7256 7.92176 16.883 7.55455L17.7132 5.61745C18.3966 4.02279 19.6672 2.75214 21.2619 2.06871C22.8622 1.38285 24.6656 1.34126 26.2958 1.95261L26.8408 2.15697C28.5294 2.7902 29.9624 3.96205 30.9182 5.49135L31.9823 7.19395C32.6302 8.23053 32.8083 9.49313 32.4725 10.6685C31.9429 12.5221 30.2487 13.8 28.3209 13.8Z" stroke="#888B8D" stroke-width="2"/>
</svg>
