<svg width="19" height="21" viewBox="0 0 19 21" fill="none" xmlns="http://www.w3.org/2000/svg">
<path d="M18.5876 4.13043L15.0691 0L14.0741 1.16809L16.1852 3.64635V7.43478C16.1856 7.87283 16.334 8.29282 16.5978 8.60256C16.8617 8.91231 17.2194 9.08652 17.5926 9.08696V17.7609C17.5926 18.0895 17.4814 18.4047 17.2834 18.6371C17.0855 18.8694 16.817 19 16.537 19C16.2571 19 15.9886 18.8694 15.7906 18.6371C15.5927 18.4047 15.4815 18.0895 15.4815 17.7609V10.7391C15.4815 10.52 15.4073 10.3099 15.2754 10.155C15.1434 10.0001 14.9644 9.91304 14.7778 9.91304H11.963V1.65217C11.963 1.43308 11.8888 1.22296 11.7569 1.06804C11.6249 0.913121 11.4459 0.826087 11.2593 0.826087H2.11111C1.92448 0.826087 1.74549 0.913121 1.61352 1.06804C1.48155 1.22296 1.40741 1.43308 1.40741 1.65217V19H0V20.6522H13.3704V19H11.963V11.5652H14.0741V17.6783C14.0658 18.3517 14.2544 19.0081 14.6085 19.538C14.9625 20.0679 15.4607 20.4393 16.0198 20.5902C16.3791 20.6799 16.7508 20.6742 17.108 20.5737C17.4651 20.4732 17.7987 20.2803 18.0843 20.0092C18.3698 19.7381 18.6002 19.3956 18.7587 19.0066C18.9171 18.6176 18.9995 18.192 19 17.7609V5.29852C18.9999 4.86037 18.8516 4.44021 18.5876 4.13043ZM10.5556 19H2.81481V2.47826H10.5556V19Z" fill="#888B8D"/>
</svg>
