<svg width="34" height="38" viewBox="0 0 34 38" fill="none" xmlns="http://www.w3.org/2000/svg">
<path d="M19.0944 21.9346C20.9562 23.3309 20.9562 26.1236 19.0944 27.52C17.8532 28.4509 16.1465 28.4509 14.9053 27.52C13.0435 26.1236 13.0435 23.3309 14.9053 21.9346C16.1465 21.0036 17.8532 21.0036 19.0944 21.9346Z" stroke="#888B8D" stroke-width="2"/>
<path d="M7.73633 14.5455V10.939C7.73633 7.75236 9.37432 4.7894 12.0728 3.09453V3.09453C15.085 1.20266 18.9145 1.20267 21.9266 3.09463V3.09463C24.6249 4.78948 26.2626 7.75221 26.2626 10.9386V14.5455" stroke="#888B8D" stroke-width="2"/>
<path d="M1 30.5235V16.5454C1 15.4409 1.89543 14.5454 3 14.5454H31C32.1046 14.5454 33 15.4409 33 16.5454V29.1345C33 31.3976 31.9402 33.5302 30.1362 34.8968C28.8799 35.8485 27.347 36.3636 25.7709 36.3636H6.84012C5.1618 36.3636 3.56461 35.6416 2.45586 34.3816C1.51758 33.3154 1 31.9438 1 30.5235Z" stroke="#888B8D" stroke-width="2"/>
</svg>
