<svg width="72" height="72" viewBox="0 0 72 72" fill="none" xmlns="http://www.w3.org/2000/svg">
<path d="M32.527 38.7106H41.2573V35.799H40.2983C40.3033 36.0655 40.2526 36.3299 40.1491 36.5754C40.046 36.8213 39.8921 37.0424 39.6984 37.225C39.5043 37.4076 39.2743 37.548 39.0231 37.6362C38.7715 37.7248 38.5043 37.7596 38.2389 37.7387H36.8943V33.3798H38.3586V32.4167H32.527V33.3798H33.9916V37.7302H32.5229L32.527 38.7106Z" fill="#010101"/>
<path d="M45.4539 38.7149H48.8534L51.7349 33.3842H53.1778V32.4167H48.8321V33.3842H50.0864L47.9884 37.2676L45.8607 33.3842H47.3848V32.4167H41.0781V33.3842H42.5211L45.4539 38.7149Z" fill="#010101"/>
<path d="M15.1395 32.4167H8.83252V33.3842H10.2754L13.2083 38.7149H16.6078L19.4896 33.3842H20.9366V32.4167H16.5865V33.3842H17.8455L15.7432 37.2676L13.6151 33.3842H15.1436L15.1395 32.4167Z" fill="#010101"/>
<path d="M21.7798 35.5893C21.7798 37.4434 23.2741 38.9161 26.2712 38.9161C29.2683 38.9161 30.7414 37.4434 30.7414 35.5893C30.7414 33.7355 29.1743 32.301 26.2543 32.301C23.334 32.301 21.7798 33.744 21.7798 35.5893ZM27.8126 35.5893C27.7913 36.7326 27.3202 37.9273 26.2198 37.9057C25.1195 37.8844 24.687 36.7069 24.7042 35.5338C24.7214 34.3604 25.3078 33.2644 26.3054 33.2817C27.3033 33.2986 27.8342 34.3733 27.8126 35.5893Z" fill="#010101"/>
<path d="M54.0161 35.5893C54.0161 37.4434 55.5064 38.9161 58.5035 38.9161C61.5006 38.9161 62.9777 37.4434 62.9777 35.5893C62.9777 33.7355 61.4063 32.301 58.4862 32.301C55.5662 32.301 54.0161 33.744 54.0161 35.5893ZM58.542 33.2945C59.5396 33.2945 60.0661 34.3905 60.0448 35.6021C60.0448 36.7455 59.5525 37.9402 58.4562 37.9185C57.3602 37.8972 56.9192 36.7198 56.9405 35.5467C56.9618 34.3733 57.5401 33.26 58.542 33.2773V33.2945Z" fill="#010101"/>
<path d="M65.6284 15.5513L61.9762 19.2034C66.1156 25.6089 67.7378 33.3192 66.5306 40.8494C65.3233 48.3795 61.3719 55.1965 55.4376 59.9865C49.5032 64.7766 42.0058 67.2009 34.3905 66.7924C26.7751 66.3835 19.5804 63.1707 14.1929 57.773C8.8053 52.3752 5.60596 45.1748 5.21166 37.5584C4.81703 29.9424 7.2555 22.4498 12.0567 16.5245C16.8579 10.5991 23.6823 6.66033 31.2145 5.46713C38.747 4.27397 46.4547 5.9108 52.852 10.0623L56.5041 6.41002C49.1177 1.2916 40.0841 -0.87912 31.1786 0.324426C22.2729 1.52797 14.1394 6.01877 8.37685 12.9143C2.61392 19.8097 -0.361548 28.6114 0.0351142 37.5889C0.431776 46.5667 4.17182 55.0717 10.5201 61.4318C16.8687 67.7923 25.3663 71.5482 34.3435 71.9618C43.3206 72.3754 52.1277 69.4165 59.0339 63.6664C65.9401 57.9167 70.4461 49.7917 71.6665 40.8883C72.8866 31.9852 70.7329 22.9472 65.6284 15.5513Z" fill="#010101"/>
<path d="M54.1235 1.43484V2.44101C56.2976 3.62146 58.3522 5.00947 60.2591 6.58563L55.1211 11.7236C57.0561 13.2397 58.8013 14.9835 60.319 16.9171L65.457 11.7793C67.0287 13.6845 68.4206 15.7312 69.6143 17.8934H70.599V1.43484H54.1235Z" fill="#010101"/>
</svg>
