<svg width="18" height="25" viewBox="0 0 18 25" fill="none" xmlns="http://www.w3.org/2000/svg">
<path d="M15.8602 13.1053L8.469 23.9941L2.21534 14.3624C1.67495 13.5302 1.27651 12.6139 1.03628 11.6511L0.949452 11.3031C0.612862 9.95417 0.649296 8.53908 1.05486 7.20922C1.28303 6.46102 1.62432 5.75213 2.06689 5.10715L2.46318 4.52961C3.03376 3.69806 3.76109 2.9858 4.6044 2.43275L4.79415 2.30831C5.93375 1.56094 7.26687 1.16279 8.62968 1.16279C9.99249 1.16279 11.3256 1.56094 12.4652 2.30831L12.655 2.43275C13.4983 2.9858 14.2256 3.69806 14.7962 4.52961L15.0768 4.93863C15.5955 5.69444 15.9841 6.53161 16.2267 7.41555C16.6179 8.84072 16.6179 10.3449 16.2267 11.7701L15.8602 13.1053Z" stroke="#888B8D"/>
</svg>
