<svg width="18" height="25" viewBox="0 0 18 25" fill="none" xmlns="http://www.w3.org/2000/svg">
<path d="M16.4252 12.9426L9.03395 23.8314L2.78028 14.1996C2.23989 13.3674 1.84145 12.4511 1.60122 11.4883L1.51439 11.1404C1.1778 9.79138 1.21424 8.37629 1.6198 7.04642C1.84797 6.29823 2.18926 5.58934 2.63183 4.94436L3.02812 4.36682C3.5987 3.53527 4.32603 2.82301 5.16934 2.26995L5.35909 2.14551C6.49869 1.39815 7.83182 1 9.19462 1C10.5574 1 11.8906 1.39815 13.0302 2.14552L13.2199 2.26995C14.0632 2.82301 14.7905 3.53527 15.3611 4.36682L15.6418 4.77584C16.1604 5.53164 16.549 6.36882 16.7917 7.25275C17.1828 8.67792 17.1828 10.1822 16.7917 11.6073L16.4252 12.9426Z" stroke="#888B8D"/>
<path d="M13.6755 8.72754C13.6755 11.598 11.5564 13.8476 9.03381 13.8476C6.51119 13.8476 4.39209 11.598 4.39209 8.72754C4.39209 5.85704 6.51119 3.60751 9.03381 3.60751C11.5564 3.60751 13.6755 5.85704 13.6755 8.72754Z" stroke="#888B8D"/>
</svg>
