<svg width="32" height="32" viewBox="0 0 32 32" fill="none" xmlns="http://www.w3.org/2000/svg">
<path d="M20.0403 13.9109C20.0403 13.9109 17.9679 20.9376 16.9837 22.1635C16.7514 22.464 16.4717 22.7057 16.1609 22.8746C15.85 23.0436 15.5143 23.1362 15.1734 23.1472C14.8325 23.1583 14.4931 23.0874 14.1752 22.9388C13.8573 22.7902 13.5672 22.5669 13.3218 22.2818C13.0765 21.9967 12.8808 21.6557 12.7462 21.2786C12.6117 20.9015 12.541 20.496 12.5382 20.0856C12.5354 19.6752 12.6006 19.2683 12.73 18.8886C12.8594 18.509 13.0505 18.1641 13.2919 17.8743C14.2761 16.6468 20.0403 13.9109 20.0403 13.9109V13.9109Z" stroke="#53565A" stroke-linejoin="round"/>
<path d="M16 2.50171V5.58968" stroke="#53565A" stroke-linecap="round" stroke-linejoin="round"/>
<path d="M25.5246 8.01535L23.5305 9.9584" stroke="#53565A" stroke-linecap="round" stroke-linejoin="round"/>
<path d="M27.8845 20.4373L25.3835 19.7426" stroke="#53565A" stroke-linecap="round" stroke-linejoin="round"/>
<path d="M4.11548 20.4373L6.61645 19.7426" stroke="#53565A" stroke-linecap="round" stroke-linejoin="round"/>
<path d="M6.47559 8.01535L8.46969 9.9584" stroke="#53565A" stroke-linecap="round" stroke-linejoin="round"/>
<circle cx="16" cy="16" r="15.5" stroke="#53565A"/>
</svg>
