<svg width="42" height="34" viewBox="0 0 42 34" fill="none" xmlns="http://www.w3.org/2000/svg">
<path d="M1 33L6.47074 29.6334C7.15464 29.2125 7.8847 28.8718 8.64652 28.6178L11.9581 27.514C13.8125 26.8958 15.1382 25.2559 15.3541 23.3131V23.3131C15.4497 22.4524 15.3207 21.5816 14.9795 20.7856L14 18.5L13.0549 15.9009C12.3649 14.0035 12.2094 11.953 12.6054 9.97323L12.6885 9.5576C12.8945 8.52771 13.2852 7.54364 13.8419 6.653V6.653C14.9137 4.93809 16.5495 3.65017 18.468 3.01067L18.6559 2.94803C19.5461 2.65129 20.4784 2.5 21.4168 2.5H21.5108C22.4956 2.5 23.4723 2.67712 24.3944 3.02289V3.02289C26.0843 3.6566 27.5183 4.82935 28.4749 6.35982L28.6246 6.59935C29.2034 7.52546 29.6097 8.54873 29.8239 9.61964L29.8946 9.97323C30.2906 11.953 30.1351 14.0035 29.4451 15.9009L28.5 18.5L27.5292 20.7653C27.1823 21.5746 27.0511 22.46 27.1483 23.3351V23.3351C27.3635 25.2715 28.664 26.9157 30.4988 27.571L33.6335 28.6905C34.21 28.8964 34.7673 29.1528 35.2989 29.4565L41.5 33" stroke="#53565A"/>
<path d="M13.5 18V18C12.8424 17.3424 12.3469 16.5407 12.0528 15.6584L11.7527 14.7582C11.5877 14.263 11.5672 13.731 11.6938 13.2246L11.8843 12.4628C11.9577 12.1691 12.1559 11.9221 12.4267 11.7867V11.7867C12.778 11.611 13 11.2518 13 10.859V8.49725C13 7.83928 13.1336 7.18816 13.3928 6.58338L13.7999 5.63358C14.2595 4.56112 14.9767 3.61864 15.8878 2.88974V2.88974C16.6219 2.30244 17.4655 1.86699 18.3695 1.60872L19.4026 1.31356C20.1306 1.10553 20.8841 1 21.6414 1V1C23.4918 1 25.2872 1.62979 26.7322 2.78578L27 3V3C28.3008 4.30075 29.1626 5.97543 29.465 7.78994L29.5 8L29.85 11.5M30 13L29.85 11.5M29.85 11.5V11.5C30.5483 11.8036 31 12.4925 31 13.254V14.172C31 14.3901 30.9785 14.6077 30.9357 14.8217L30.6543 16.2287C30.5555 16.7226 30.2646 17.1569 29.8456 17.4363V17.4363C29.3173 17.7885 29 18.3813 29 19.0162V19.4393C29 20.1185 28.7302 20.7698 28.25 21.25V21.25C27.7698 21.7302 27.1185 22 26.4393 22H22.5M22.5 22L21.527 21.3514C21.1834 21.1223 20.7796 21 20.3666 21H20.2071C19.7544 21 19.3201 21.1799 19 21.5L18.7373 21.7627C18.5854 21.9146 18.5 22.1207 18.5 22.3357V22.3357C18.5 22.7219 18.7727 23.0545 19.1514 23.1303L20.4439 23.3888C20.8043 23.4609 21.1785 23.4108 21.5072 23.2464V23.2464C21.8271 23.0865 22.0865 22.8271 22.2464 22.5072L22.5 22Z" stroke="#53565A"/>
</svg>
