<svg width="32" height="29" viewBox="0 0 32 29" fill="none" xmlns="http://www.w3.org/2000/svg">
<path d="M24.051 18.0881L19.9203 14.4027L18.5317 15.6419C19.2352 16.6906 19.124 18.0795 18.0862 19.0263L18.0432 19.0763L20.2926 21.0838L20.5382 21.303L20.4339 21.6152C20.2792 22.0784 20.19 22.5665 20.19 23.0707C20.19 25.8186 22.6194 28.0637 25.845 28.0637C29.0707 28.0637 31.5 25.8186 31.5 23.0707C31.5 20.3227 29.0707 18.0776 25.845 18.0777L25.8411 18.0776C25.3836 18.074 24.9273 18.117 24.4811 18.2054L24.2368 18.2539L24.051 18.0881ZM26.9733 5.22217L27.1441 5.06971L27.3711 5.09942L28.9047 5.30016L31.3474 1.53021L30.3074 0.602081L26.0128 2.81891L26.2228 4.10862L26.2669 4.37937L26.0622 4.56203L14.7912 14.6208L14.4583 14.9179L14.1254 14.6208L13.3179 13.9001L13.3178 13.9002L13.3101 13.8931C13.2474 13.8347 13.1689 13.7854 13.0779 13.7508C12.9869 13.7161 12.8873 13.6977 12.7854 13.6977C12.6835 13.6977 12.5838 13.7161 12.4929 13.7508C12.4019 13.7854 12.3234 13.8347 12.2606 13.8931L12.2607 13.8932L12.2524 13.9006L11.7919 14.3105C11.7918 14.3106 11.7917 14.3107 11.7915 14.3108C11.6708 14.4196 11.602 14.7742 11.8411 15.0588L12.1693 15.4493L11.7723 15.7696L10.156 17.0736L9.95145 17.2387L9.6995 17.1637C9.14351 16.9983 8.44289 17.1611 7.94358 17.6065C7.94345 17.6066 7.94333 17.6067 7.9432 17.6068L1.3277 23.546L1.3266 23.547C0.752476 24.0593 0.479429 24.7145 0.501209 25.3648C0.522953 26.014 0.840736 26.7072 1.54302 27.2857L1.55065 27.292L1.55802 27.2986C2.72244 28.3377 4.65174 28.3377 5.81616 27.2986L5.81723 27.2976L12.4709 21.3936C12.9191 20.9936 13.029 20.4085 12.9278 19.8666L12.8761 19.5894L13.0866 19.4017L14.549 18.0976L14.9333 17.755L15.2645 18.1491C15.4099 18.322 15.8288 18.3966 16.1636 18.098C16.1637 18.0979 16.1638 18.0978 16.1639 18.0978L16.6632 17.651L16.6637 17.6506C16.8136 17.5169 16.8659 17.3724 16.8659 17.2514C16.8659 17.1313 16.8143 16.988 16.667 16.855L15.7098 16.0347L15.2758 15.6627L15.7023 15.2821L26.9733 5.22217ZM15.5003 10.8018L13.2796 8.81903L12.947 8.5221L13.2041 8.15781C13.9084 7.15956 14.2974 6.19149 14.3218 5.31634C14.3455 4.46695 14.0283 3.65325 13.2089 2.91907C12.5067 2.33889 11.3795 1.69503 10.1253 1.21844C8.90515 0.754774 7.61636 0.469168 6.52583 0.525802L9.32568 3.02282C9.49108 3.16533 9.62644 3.33918 9.72049 3.53597C9.81545 3.73467 9.8655 3.95101 9.8655 4.1714C9.8655 4.3918 9.81545 4.60814 9.72049 4.80684C9.62644 5.00362 9.49109 5.17746 9.32571 5.31997L5.7508 8.5093C5.06872 9.11802 4.03624 9.11802 3.35417 8.5093L3.35412 8.50935L3.34811 8.50381L0.517714 5.89338C0.461479 6.65213 0.670328 7.57011 1.07971 8.51008C1.62983 9.77322 2.48502 10.9418 3.27492 11.5964L3.28197 11.6022L3.28881 11.6083C4.83649 12.9896 6.90264 12.8967 9.03242 11.7792L9.33919 11.6182L9.59766 11.8489L10.3421 12.5133L10.6261 12.2605L10.6382 12.2498L10.6508 12.2399C11.6977 11.4223 13.1808 11.3391 14.3165 11.99L15.5003 10.8018Z" stroke="#53565A"/>
</svg>
