<svg width="34" height="22" viewBox="0 0 34 22" fill="none" xmlns="http://www.w3.org/2000/svg">
<path d="M5.03033 16.9697L5.21851 16.7815C5.40495 16.5951 5.62023 16.4399 5.85606 16.322L6.01295 16.2435C6.33325 16.0834 6.68643 16 7.04454 16H7.29289C7.74565 16 8.17986 16.1799 8.5 16.5C8.82014 16.8201 9 17.2544 9 17.7071V18V18.3486C9 19.0679 8.63086 19.7461 8.03235 20.1451C7.68869 20.3742 7.2796 20.5 6.86657 20.5C6.31171 20.5 5.77958 20.2796 5.38724 19.8872L5.03033 19.5303C4.69077 19.1908 4.5 18.7302 4.5 18.25C4.5 17.7698 4.69077 17.3092 5.03033 16.9697Z" stroke="#53565A" stroke-width="2"/>
<path d="M26.0303 16.9697L26.2185 16.7815C26.4049 16.5951 26.6202 16.4399 26.8561 16.322L27.013 16.2435C27.3332 16.0834 27.6864 16 28.0445 16H28.2929C28.7456 16 29.1799 16.1799 29.5 16.5C29.8201 16.8201 30 17.2544 30 17.7071V18V18.3486C30 19.0679 29.6309 19.7461 29.0323 20.1451C28.6887 20.3742 28.2796 20.5 27.8666 20.5C27.3117 20.5 26.7796 20.2796 26.3872 19.8872L26.0303 19.5303C25.6908 19.1908 25.5 18.7302 25.5 18.25C25.5 17.7698 25.6908 17.3092 26.0303 16.9697Z" stroke="#53565A" stroke-width="2"/>
<path d="M31.5 6L30.3634 6.75772C30.1253 6.91649 29.9327 7.13466 29.8047 7.39066V7.39066C29.6096 7.78082 29.5775 8.23248 29.7154 8.6463L29.7265 8.67962C29.8987 9.19606 30.3039 9.60131 30.8204 9.77346L30.9 9.8C31.2895 9.92982 31.7105 9.92982 32.1 9.8V9.8C32.6666 9.61115 33.1111 9.16656 33.3 8.6L33.5 8" stroke="#53565A"/>
<path d="M1 18V16.25C1 15.8358 1.33579 15.5 1.75 15.5V15.5C2.16421 15.5 2.5 15.1642 2.5 14.75V11C2.5 10.4477 2.94772 10 3.5 10H6.25C6.66421 10 7 9.66421 7 9.25V9.25C7 8.83579 7.33579 8.5 7.75 8.5V8.5C8.16421 8.5 8.5 8.16421 8.5 7.75V6.75C8.5 6.33579 8.83579 6 9.25 6V6C9.66421 6 10 5.66421 10 5.25V5C10 4.44772 10.4477 4 11 4H18V4C18.2761 4 18.5 4.22386 18.5 4.5V13C18.5 13.5523 18.9477 14 19.5 14H31.5C32.0523 14 32.5 14.4477 32.5 15V18" stroke="#53565A" stroke-width="2"/>
<path d="M10.5 18L23.5 18" stroke="#53565A" stroke-width="2"/>
<path d="M23.5 11L30.2087 2.31814C30.7919 1.56345 32 1.97584 32 2.92958V6.5" stroke="#53565A" stroke-width="2"/>
</svg>
