<svg width="18" height="24" viewBox="0 0 18 24" fill="none" xmlns="http://www.w3.org/2000/svg">
<path d="M13.9977 5.26877C13.9977 7.94529 12.0224 10.0375 9.6773 10.0375C7.33216 10.0375 5.35693 7.94529 5.35693 5.26877C5.35693 2.59226 7.33216 0.5 9.6773 0.5C12.0224 0.5 13.9977 2.59226 13.9977 5.26877Z" stroke="#888B8D"/>
<path d="M15.3892 22.8314H3C1.89543 22.8314 1 21.9359 1 20.8314V16.4677C1 15.1731 1.63362 13.9606 2.69635 13.2214C3.83696 12.428 5.31025 12.2915 6.57723 12.8617L8.0083 13.5058C9.26615 14.0719 10.713 14.0366 11.9417 13.4099L12.8401 12.9516C14.0249 12.3473 15.4622 12.5582 16.4233 13.4775C17.0403 14.0676 17.3892 14.8842 17.3892 15.7379V20.8314C17.3892 21.9359 16.4938 22.8314 15.3892 22.8314Z" stroke="#888B8D"/>
</svg>
