<svg width="32" height="31" viewBox="0 0 32 31" fill="none" xmlns="http://www.w3.org/2000/svg">
<path d="M27.749 6.33333H3.69658C2.97046 6.33333 2.27574 6.03723 1.77288 5.51342C0.782259 4.48152 0.782259 2.85181 1.77288 1.81992C2.27574 1.2961 2.97046 1 3.69658 1H28.389C29.0604 1 29.7029 1.27381 30.1679 1.7582C31.1582 2.78982 31.0662 4.44481 29.9676 5.36031L29.6074 5.66048C29.0857 6.09524 28.4281 6.33333 27.749 6.33333Z" fill="#1B365D" stroke="#1B365D" stroke-width="2"/>
<path d="M2.6665 17.4782V10.3333H29.3332V16.7463C29.3332 19.0935 28.6953 21.3965 27.4876 23.4092C26.087 25.7436 23.9864 27.5772 21.4842 28.6496L21.1615 28.7878C17.8565 30.2043 14.1243 30.2498 10.7858 28.9144L10.2693 28.7078C7.51904 27.6077 5.26809 25.5365 3.94337 22.8871C3.10367 21.2077 2.6665 19.3558 2.6665 17.4782Z" fill="#1B365D" stroke="#1B365D" stroke-width="2"/>
<circle cx="16.0002" cy="19.6667" r="6.66667" fill="#F6F6F6"/>
<circle cx="16.0002" cy="19.6667" r="1.66667" fill="#1B365D" stroke="#1B365D" stroke-width="2"/>
</svg>
